# xmcd
#
# Track frame offsets: 
#        150
#        29588
#        67563
#        98013
#        130553
#        156243
#        183093
#        212788
#        244388
#        279692
#        295049
#        319600
#        335746
#
# Disc length: 4707 seconds
#
# Revision: 0
# Processed by: cddbd v1.5.2PL0 Copyright (c) Steve Scherf et al.
# Submitted via: ExactAudioCopy v1.0b3
#
DISCID=b812610d
DTITLE=Various Artist - Hypetraxx - The Real Club Sound - CD 2
DYEAR=1900
DGENRE=
TTITLE0=Krafft - Beep Beep
TTITLE1=Winman - Keep This Track
TTITLE2=Alan Pride - Left 2 Right
TTITLE3=Chico Del Mar - Free Your Mind
TTITLE4=Sunday - Begin To Biguine
TTITLE5=DJ Erick - Face 2 Face
TTITLE6=Jim-X - Snooze
TTITLE7=The B.O.M.B. Feat. Sean Finn - Starshine
TTITLE8=Sweet and Pepper - Keep On Dancing
TTITLE9=Dave and Wild - Esperanzo
TTITLE10=Kenobi - Funky Beatz
TTITLE11=Porn Ball - Sexual Vibes
TTITLE12=Take Control - Feel Great
EXTD=
EXTT0=
EXTT1=
EXTT2=
EXTT3=
EXTT4=
EXTT5=
EXTT6=
EXTT7=
EXTT8=
EXTT9=
EXTT10=
EXTT11=
EXTT12=
PLAYORDER=
